<svg data-v-0dd9719b="" version="1.0" xmlns="http://www.w3.org/2000/svg" xmlns:xlink="http://www.w3.org/1999/xlink" width="100%" height="100%" viewBox="0 0 340.000000 250.000000" preserveAspectRatio="xMidYMid meet" color-interpolation-filters="sRGB" style="margin: auto;"> <rect data-v-0dd9719b="" x="0" y="0" width="100%" height="100%" fill="#fff" fill-opacity="1" class="background"></rect> <!----> <g data-v-0dd9719b="" fill="#333" class="icon-text-wrapper icon-svg-group iconsvg" transform="translate(48.224998474121094,90.35916900634766)"><g class="iconsvg-imagesvg" transform="translate(0,0)"><g><rect fill="#333" fill-opacity="0" stroke-width="2" x="0" y="0" width="60" height="69.28166460746164" class="image-rect"></rect> <svg x="0" y="0" width="60" height="69.28166460746164" filtersec="colorsb4395790699" class="image-svg-svg primary" style="overflow: visible;"><svg xmlns="http://www.w3.org/2000/svg" viewBox="0 0 68.19999694824219 78.75"><title>资源 12</title><path fill="#00b0e5" d="M68.2 41.16v17.9L34.1 78.75V57.28l15.51-8.95V27.71L68.2 41.16zM34.1 0v21.47l-15.51 8.95v20.62L0 37.59v-17.9L34.1 0z"></path><path fill="#0083ac" d="M0 37.59l18.59 3.66v9.79L0 37.59z"></path><path fill="#69cfef" d="M34.1 57.28L15.51 68.02 0 59.06V37.59l18.59 10.74 15.51 8.95z"></path><path fill="#0083ac" d="M68.2 41.16L49.61 37.5v-9.79L68.2 41.16z"></path><path fill="#69cfef" d="M68.2 19.69v21.47L49.61 30.42 34.1 21.47l18.6-10.74 15.5 8.96z"></path></svg></svg> <!----></g></g> <g transform="translate(67,5.717832565307617)"><g data-gra="path-name" fill-rule="" class="tp-name iconsvg-namesvg" transform="translate(0,0)"><g transform="scale(1)"><g><path d="M35.19-38.81L35.19-38.81Q34.97-36.01 34.89-33.43 34.81-30.86 34.81-29.49L34.81-29.49Q34.81-28.28 34.86-27.19 34.91-26.09 34.97-25.32L34.97-25.32 33.71-25.32Q32.83-29.93 31.49-32.61 30.15-35.3 28.28-36.42 26.42-37.55 23.9-37.55L23.9-37.55 22.64-37.55 22.64-6.25Q22.64-4.06 23.1-2.96 23.57-1.86 24.83-1.51 26.09-1.15 28.5-1.1L28.5-1.1 28.5 0Q26.8-0.05 23.98-0.11 21.16-0.16 18.09-0.16L18.09-0.16Q15.07-0.16 12.39-0.11 9.7-0.05 8.06 0L8.06 0 8.06-1.1Q10.52-1.15 11.78-1.51 13.05-1.86 13.48-2.96 13.92-4.06 13.92-6.25L13.92-6.25 13.92-37.55 12.72-37.55Q10.19-37.55 8.33-36.42 6.47-35.3 5.15-32.64 3.84-29.98 2.85-25.32L2.85-25.32 1.59-25.32Q1.7-26.09 1.73-27.19 1.75-28.28 1.75-29.49L1.75-29.49Q1.75-30.86 1.67-33.43 1.59-36.01 1.37-38.81L1.37-38.81Q3.89-38.75 6.88-38.7 9.87-38.64 12.88-38.64 15.9-38.64 18.31-38.64L18.31-38.64Q20.77-38.64 23.76-38.64 26.75-38.64 29.76-38.7 32.78-38.75 35.19-38.81ZM62.7-28.94L62.7-28.94 62.7-5.97Q62.7-3.51 63.47-2.33 64.24-1.15 66.21-1.15L66.21-1.15 66.21 0Q64.51-0.16 62.81-0.16L62.81-0.16Q60.51-0.16 58.54 0 56.57 0.16 54.81 0.6L54.81 0.6 54.81-4.33Q53.5-1.59 51.17-0.41 48.84 0.77 45.99 0.77L45.99 0.77Q43.68 0.77 42.26 0.16 40.83-0.44 40.01-1.37L40.01-1.37Q39.08-2.41 38.7-4.11 38.31-5.81 38.31-8.5L38.31-8.5 38.31-22.36Q38.31-24.83 37.57-26.01 36.83-27.19 34.81-27.19L34.81-27.19 34.81-28.34Q36.56-28.17 38.2-28.17L38.2-28.17Q40.51-28.17 42.51-28.36 44.51-28.56 46.21-28.94L46.21-28.94 46.21-6.25Q46.21-4.88 46.45-3.84 46.7-2.8 47.41-2.22 48.12-1.64 49.49-1.64L49.49-1.64Q51.69-1.64 53.25-3.48 54.81-5.32 54.81-8L54.81-8 54.81-22.36Q54.81-24.83 54.07-26.01 53.33-27.19 51.3-27.19L51.3-27.19 51.3-28.34Q53.06-28.17 54.7-28.17L54.7-28.17Q57-28.17 59-28.36 61-28.56 62.7-28.94ZM89.01-29.1L89.01-29.1Q91.32-29.1 92.77-28.53 94.22-27.95 95.04-26.97L95.04-26.97Q95.92-25.93 96.33-24.28 96.74-22.64 96.74-19.84L96.74-19.84 96.74-5.1Q96.74-2.8 97.54-1.97 98.33-1.15 100.25-1.15L100.25-1.15 100.25 0Q99.21-0.05 97.13-0.14 95.04-0.22 93.01-0.22L93.01-0.22Q90.93-0.22 88.93-0.14 86.93-0.05 85.89 0L85.89 0 85.89-1.15Q87.53-1.15 88.19-1.97 88.85-2.8 88.85-5.1L88.85-5.1 88.85-22.14Q88.85-23.51 88.57-24.53 88.3-25.54 87.59-26.12 86.88-26.69 85.45-26.69L85.45-26.69Q83.15-26.69 81.59-24.88 80.02-23.08 80.02-20.33L80.02-20.33 80.02-5.1Q80.02-2.8 80.71-1.97 81.39-1.15 82.98-1.15L82.98-1.15 82.98 0Q82-0.05 80.11-0.14 78.22-0.22 76.19-0.22L76.19-0.22Q74.1-0.22 71.91-0.14 69.72-0.05 68.62 0L68.62 0 68.62-1.15Q70.54-1.15 71.34-1.97 72.13-2.8 72.13-5.1L72.13-5.1 72.13-22.36Q72.13-24.83 71.39-26.01 70.65-27.19 68.62-27.19L68.62-27.19 68.62-28.34Q70.38-28.17 72.02-28.17L72.02-28.17Q74.32-28.17 76.32-28.36 78.33-28.56 80.02-28.94L80.02-28.94 80.02-24.01Q81.39-26.8 83.75-27.95 86.11-29.1 89.01-29.1ZM109.4-42.48L109.4-42.48Q111.71-42.48 113.05-41.36 114.39-40.23 114.39-38.26L114.39-38.26Q114.39-36.29 113.05-35.16 111.71-34.04 109.4-34.04L109.4-34.04Q107.1-34.04 105.76-35.16 104.42-36.29 104.42-38.26L104.42-38.26Q104.42-40.23 105.76-41.36 107.1-42.48 109.4-42.48ZM113.68-28.94L113.68-28.94 113.68-5.1Q113.68-2.8 114.47-1.97 115.27-1.15 117.19-1.15L117.19-1.15 117.19 0Q116.2-0.05 114.12-0.14 112.03-0.22 109.9-0.22L109.9-0.22Q107.76-0.22 105.57-0.14 103.37-0.05 102.28 0L102.28 0 102.28-1.15Q104.2-1.15 104.99-1.97 105.79-2.8 105.79-5.1L105.79-5.1 105.79-22.36Q105.79-24.83 105.05-26.01 104.31-27.19 102.28-27.19L102.28-27.19 102.28-28.34Q104.03-28.17 105.68-28.17L105.68-28.17Q107.98-28.17 109.98-28.36 111.98-28.56 113.68-28.94ZM130.67-42.92L130.67-42.92 130.67-5.1Q130.67-2.8 131.41-1.97 132.15-1.15 133.96-1.15L133.96-1.15 133.96 0Q132.92-0.05 130.92-0.14 128.92-0.22 126.83-0.22L126.83-0.22Q124.7-0.22 122.53-0.14 120.37-0.05 119.27 0L119.27 0 119.27-1.15Q121.19-1.15 121.98-1.97 122.78-2.8 122.78-5.1L122.78-5.1 122.78-36.34Q122.78-38.81 122.04-39.98 121.3-41.16 119.27-41.16L119.27-41.16 119.27-42.31Q121.02-42.15 122.67-42.15L122.67-42.15Q124.91-42.15 126.94-42.34 128.97-42.53 130.67-42.92ZM148.54-28.34L148.54-28.34 148.54-27.24Q146.84-26.91 145.14-25.82 143.44-24.72 141.69-23.02L141.69-23.02 137.47-18.64 138.01-19.68 147.39-4Q147.99-3.01 148.65-2.25 149.31-1.48 150.24-1.15L150.24-1.15 150.24 0Q149.42-0.05 147.77-0.14 146.13-0.22 144.48-0.22L144.48-0.22Q142.45-0.22 140.43-0.14 138.4-0.05 137.41 0L137.41 0 137.41-1.15Q138.51-1.15 138.89-1.67 139.28-2.19 138.78-3.01L138.78-3.01 133.36-12.83Q132.7-13.87 132.07-14.17 131.44-14.47 130.4-14.52L130.4-14.52 130.4-15.57Q131.55-15.68 132.4-15.95 133.25-16.22 133.96-16.99L133.96-16.99 138.12-21.05Q139.99-22.8 139.99-24.17 139.99-25.54 138.81-26.36 137.63-27.19 135.71-27.24L135.71-27.24 135.71-28.34Q137.25-28.28 139.06-28.23 140.86-28.17 142.13-28.17L142.13-28.17Q143.22-28.17 144.45-28.2 145.69-28.23 146.78-28.26 147.88-28.28 148.54-28.34ZM164.49-29.1L164.49-29.1Q168.49-29.1 171.5-27.62 174.52-26.14 176.22-22.86 177.92-19.57 177.92-14.14L177.92-14.14Q177.92-8.71 176.22-5.45 174.52-2.19 171.5-0.71 168.49 0.77 164.49 0.77L164.49 0.77Q160.6 0.77 157.55-0.71 154.51-2.19 152.79-5.45 151.06-8.71 151.06-14.14L151.06-14.14Q151.06-19.57 152.79-22.86 154.51-26.14 157.55-27.62 160.6-29.1 164.49-29.1ZM164.49-28.01L164.49-28.01Q162.3-28.01 160.82-24.75 159.34-21.49 159.34-14.14L159.34-14.14Q159.34-6.8 160.82-3.56 162.3-0.33 164.49-0.33L164.49-0.33Q166.74-0.33 168.19-3.56 169.64-6.8 169.64-14.14L169.64-14.14Q169.64-21.49 168.19-24.75 166.74-28.01 164.49-28.01Z" transform="translate(-1.3700000047683716, 42.91999816894531)"></path></g> <!----> <!----> <!----> <!----> <!----> <!----> <!----></g></g> <g data-gra="path-slogan" fill-rule="" class="tp-slogan iconsvg-slogansvg" fill="#333" transform="translate(5,49.689998626708984)"><rect x="0" height="1" y="3.580000400543213" width="28.895004272460938"></rect> <rect height="1" y="3.580000400543213" width="28.895004272460938" x="137.65499877929688"></rect> <g transform="translate(31.895004272460938,0)"><g transform="scale(1)"><path d="M1.08-7.87L1.08 0L2.08 0L2.08-3.71L5.74-3.71L5.74 0L6.74 0L6.74-7.87L5.74-7.87L5.74-4.57L2.08-4.57L2.08-7.87ZM8.90-7.87L8.90 0L13.56 0L13.56-0.85L9.90-0.85L9.90-3.71L12.89-3.71L12.89-4.56L9.90-4.56L9.90-7.03L13.44-7.03L13.44-7.87ZM15.23-7.87L15.23 0L19.67 0L19.67-0.85L16.22-0.85L16.22-7.87ZM21.06-7.87L21.06 0L22.06 0L22.06-3.12L23.47-3.12C23.90-3.12 24.30-3.17 24.65-3.27C25.01-3.37 25.32-3.52 25.57-3.72C25.83-3.92 26.03-4.17 26.17-4.48C26.31-4.78 26.38-5.14 26.38-5.56C26.38-5.99 26.31-6.35 26.17-6.65C26.03-6.94 25.83-7.18 25.58-7.36C25.33-7.54 25.02-7.67 24.66-7.75C24.30-7.83 23.90-7.87 23.47-7.87ZM23.35-3.94L22.06-3.94L22.06-7.07L23.35-7.07C24.03-7.07 24.54-6.96 24.88-6.74C25.21-6.52 25.38-6.12 25.38-5.56C25.38-5.00 25.21-4.59 24.88-4.33C24.55-4.07 24.04-3.94 23.35-3.94ZM30.36-7.87L30.36-3.25C30.36-2.62 30.43-2.09 30.58-1.66C30.72-1.22 30.92-0.87 31.17-0.61C31.42-0.34 31.72-0.15 32.07-0.03C32.42 0.09 32.79 0.14 33.19 0.14C33.59 0.14 33.96 0.09 34.31-0.03C34.65-0.15 34.95-0.34 35.20-0.61C35.45-0.87 35.65-1.22 35.80-1.66C35.94-2.09 36.01-2.62 36.01-3.25L36.01-7.87L35.05-7.87L35.05-3.23C35.05-2.76 35.00-2.36 34.91-2.04C34.81-1.72 34.68-1.46 34.51-1.27C34.34-1.08 34.15-0.94 33.92-0.86C33.70-0.77 33.46-0.73 33.19-0.73C32.94-0.73 32.70-0.77 32.47-0.86C32.25-0.94 32.05-1.08 31.89-1.27C31.73-1.46 31.60-1.72 31.50-2.04C31.40-2.36 31.36-2.76 31.36-3.23L31.36-7.87ZM38.04-1.72L37.44-1.02C37.78-0.66 38.19-0.38 38.66-0.17C39.14 0.04 39.65 0.14 40.20 0.14C40.62 0.14 40.99 0.09 41.32-0.03C41.64-0.15 41.92-0.31 42.16-0.51C42.39-0.71 42.57-0.95 42.69-1.22C42.81-1.50 42.88-1.79 42.88-2.10C42.88-2.39 42.83-2.64 42.75-2.86C42.67-3.08 42.55-3.27 42.41-3.44C42.26-3.60 42.09-3.75 41.89-3.87C41.69-3.99 41.48-4.10 41.26-4.20L40.14-4.68C39.98-4.74 39.82-4.81 39.67-4.89C39.52-4.97 39.38-5.05 39.25-5.15C39.12-5.25 39.02-5.37 38.95-5.50C38.87-5.63 38.83-5.80 38.83-5.99C38.83-6.35 38.97-6.63 39.23-6.83C39.50-7.04 39.86-7.14 40.30-7.14C40.66-7.14 40.99-7.07 41.29-6.94C41.58-6.81 41.84-6.63 42.08-6.40L42.62-7.04C42.34-7.33 42.00-7.57 41.60-7.75C41.20-7.93 40.77-8.02 40.30-8.02C39.94-8.02 39.61-7.96 39.31-7.86C39.01-7.76 38.75-7.61 38.53-7.42C38.31-7.23 38.13-7.01 38.01-6.76C37.89-6.50 37.82-6.22 37.82-5.93C37.82-5.64 37.87-5.39 37.97-5.17C38.06-4.95 38.19-4.76 38.34-4.60C38.49-4.44 38.66-4.30 38.86-4.19C39.05-4.08 39.24-3.98 39.42-3.90L40.55-3.41C40.73-3.32 40.90-3.24 41.06-3.16C41.22-3.08 41.36-2.99 41.48-2.89C41.59-2.79 41.69-2.67 41.75-2.53C41.82-2.39 41.86-2.22 41.86-2.02C41.86-1.63 41.71-1.32 41.42-1.09C41.14-0.85 40.73-0.73 40.21-0.73C39.80-0.73 39.41-0.82 39.03-1.00C38.65-1.18 38.32-1.42 38.04-1.72ZM48.48-7.03L48.48 0L49.49 0L49.49-7.03L51.86-7.03L51.86-7.87L46.10-7.87L46.10-7.03ZM54.28-4.14L54.28-7.07L55.60-7.07C56.21-7.07 56.68-6.96 57.01-6.76C57.34-6.55 57.50-6.18 57.50-5.66C57.50-5.15 57.34-4.77 57.01-4.52C56.68-4.27 56.21-4.14 55.60-4.14ZM57.60 0L58.73 0L56.74-3.43C57.27-3.57 57.70-3.82 58.02-4.19C58.34-4.56 58.50-5.05 58.50-5.66C58.50-6.07 58.43-6.42 58.30-6.70C58.16-6.98 57.97-7.20 57.73-7.38C57.48-7.56 57.19-7.68 56.85-7.76C56.51-7.83 56.14-7.87 55.74-7.87L53.28-7.87L53.28 0L54.28 0L54.28-3.32L55.70-3.32ZM63.48-3.20L61.12-3.20L61.49-4.40C61.63-4.84 61.77-5.28 61.90-5.72C62.02-6.15 62.15-6.60 62.27-7.06L62.32-7.06C62.44-6.60 62.57-6.15 62.70-5.72C62.83-5.28 62.96-4.84 63.11-4.40ZM63.73-2.40L64.48 0L65.54 0L62.88-7.87L61.75-7.87L59.09 0L60.11 0L60.86-2.40ZM66.66-7.87L66.66 0L67.61 0L67.61-4.12C67.61-4.53 67.59-4.95 67.57-5.36C67.54-5.77 67.51-6.18 67.48-6.58L67.52-6.58L68.38-4.96L71.23 0L72.26 0L72.26-7.87L71.32-7.87L71.32-3.80C71.32-3.39 71.33-2.97 71.36-2.54C71.39-2.11 71.41-1.70 71.44-1.30L71.39-1.30L70.54-2.93L67.69-7.87ZM74.45-1.72L73.85-1.02C74.19-0.66 74.60-0.38 75.07-0.17C75.54 0.04 76.06 0.14 76.61 0.14C77.02 0.14 77.40 0.09 77.72-0.03C78.05-0.15 78.33-0.31 78.56-0.51C78.80-0.71 78.97-0.95 79.10-1.22C79.22-1.50 79.28-1.79 79.28-2.10C79.28-2.39 79.24-2.64 79.16-2.86C79.07-3.08 78.96-3.27 78.82-3.44C78.67-3.60 78.50-3.75 78.30-3.87C78.10-3.99 77.89-4.10 77.66-4.20L76.55-4.68C76.39-4.74 76.23-4.81 76.08-4.89C75.93-4.97 75.79-5.05 75.66-5.15C75.53-5.25 75.43-5.37 75.35-5.50C75.28-5.63 75.24-5.80 75.24-5.99C75.24-6.35 75.37-6.63 75.64-6.83C75.91-7.04 76.26-7.14 76.70-7.14C77.07-7.14 77.40-7.07 77.69-6.94C77.99-6.81 78.25-6.63 78.49-6.40L79.03-7.04C78.75-7.33 78.41-7.57 78.01-7.75C77.61-7.93 77.18-8.02 76.70-8.02C76.34-8.02 76.01-7.96 75.71-7.86C75.41-7.76 75.15-7.61 74.93-7.42C74.71-7.23 74.54-7.01 74.42-6.76C74.29-6.50 74.23-6.22 74.23-5.93C74.23-5.64 74.28-5.39 74.38-5.17C74.47-4.95 74.60-4.76 74.75-4.60C74.90-4.44 75.07-4.30 75.26-4.19C75.46-4.08 75.64-3.98 75.83-3.90L76.96-3.41C77.14-3.32 77.31-3.24 77.47-3.16C77.63-3.08 77.77-2.99 77.89-2.89C78.00-2.79 78.09-2.67 78.16-2.53C78.23-2.39 78.26-2.22 78.26-2.02C78.26-1.63 78.12-1.32 77.83-1.09C77.54-0.85 77.14-0.73 76.62-0.73C76.21-0.73 75.82-0.82 75.44-1.00C75.06-1.18 74.73-1.42 74.45-1.72ZM80.83-7.87L80.83 0L85.27 0L85.27-0.85L81.83-0.85L81.83-7.87ZM90.05-3.20L87.68-3.20L88.06-4.40C88.20-4.84 88.34-5.28 88.46-5.72C88.59-6.15 88.72-6.60 88.84-7.06L88.88-7.06C89.01-6.60 89.14-6.15 89.27-5.72C89.40-5.28 89.53-4.84 89.68-4.40ZM90.30-2.40L91.04 0L92.11 0L89.45-7.87L88.32-7.87L85.66 0L86.68 0L87.43-2.40ZM94.38-7.03L94.38 0L95.39 0L95.39-7.03L97.76-7.03L97.76-7.87L92.00-7.87L92.00-7.03ZM99.18-7.87L99.18 0L103.84 0L103.84-0.85L100.18-0.85L100.18-3.71L103.16-3.71L103.16-4.56L100.18-4.56L100.18-7.03L103.72-7.03L103.72-7.87Z" transform="translate(-1.08, 8.016)"></path></g></g></g></g></g><defs v-gra="od"></defs></svg>